<?xml version="1.0" standalone="no"?>
<!DOCTYPE svg PUBLIC "-//W3C//DTD SVG 20010904//EN"
 "http://www.w3.org/TR/2001/REC-SVG-20010904/DTD/svg10.dtd">
<svg version="1.0" xmlns="http://www.w3.org/2000/svg"
 width="260.000000pt" height="260.000000pt" viewBox="0 0 260.000000 260.000000"
 preserveAspectRatio="xMidYMid meet">
<metadata>
Created by potrace 1.11, written by Peter Selinger 2001-2013
</metadata>
<g transform="translate(0.000000,260.000000) scale(0.100000,-0.100000)"
fill="#000000" stroke="none">
<path d="M1230 2525 c-433 -124 -681 -218 -938 -355 l-102 -54 0 -248 c0 -136
4 -249 8 -252 5 -3 12 -48 15 -101 26 -386 194 -763 461 -1031 119 -119 202
-184 329 -260 103 -61 255 -128 285 -126 52 4 324 160 437 251 59 48 196 182
253 248 162 190 290 457 349 727 24 114 26 141 30 461 l4 340 -138 72 c-141
73 -325 151 -481 203 -112 37 -453 140 -461 139 -3 0 -26 -7 -51 -14z m343
-640 c-3 -11 -176 -406 -324 -740 l-89 -200 -70 -3 c-39 -2 -70 1 -70 7 0 5
68 164 151 352 83 189 176 402 207 472 l56 128 70 -3 c41 -2 70 -7 69 -13z
m-623 -234 l0 -80 -140 -73 c-77 -40 -140 -76 -140 -79 0 -4 63 -39 139 -79
l140 -72 3 -79 c2 -44 0 -79 -4 -79 -14 0 -453 232 -460 243 -15 23 -9 124 8
138 13 11 443 238 452 239 1 0 2 -36 2 -79z m900 -40 l225 -119 3 -70 c3 -63
1 -71 -20 -84 -32 -21 -433 -228 -442 -228 -4 0 -6 35 -4 78 l3 77 142 75 c79
41 143 77 143 80 0 3 -65 38 -145 78 l-145 73 0 80 c0 43 3 79 8 79 4 0 108
-54 232 -119z"/>
</g>
</svg>
